<svg width="26" height="22" viewBox="0 0 26 22" fill="none" xmlns="http://www.w3.org/2000/svg">
<path d="M21.9468 2.27187C21.9393 2.25672 21.9269 2.24505 21.9118 2.23906C20.2451 1.41959 18.4863 0.835038 16.6793 0.499994C16.6631 0.496806 16.6463 0.499164 16.6314 0.506734C16.6165 0.514304 16.6042 0.526704 16.5962 0.542181C16.3565 1.00826 16.139 1.48699 15.9443 1.97656C13.9955 1.65962 12.0132 1.65962 10.0643 1.97656C9.86891 1.48578 9.64837 1.00693 9.40371 0.542181C9.39527 0.527165 9.38288 0.515151 9.36809 0.507647C9.3533 0.500142 9.33678 0.49748 9.32059 0.499994C7.51047 0.833528 5.74858 1.41813 4.07934 2.23906C4.06469 2.2457 4.05243 2.2572 4.04434 2.27187C0.710585 7.61093 -0.20379 12.8141 0.24246 17.9562C0.243724 17.9692 0.247488 17.9817 0.253514 17.993C0.25954 18.0043 0.267695 18.0141 0.27746 18.0219C2.21937 19.5608 4.39106 20.7353 6.69996 21.4953C6.71655 21.5008 6.73434 21.5006 6.75082 21.4947C6.7673 21.4888 6.78164 21.4776 6.79184 21.4625C7.28723 20.7399 7.72622 19.9748 8.10434 19.175C8.10937 19.164 8.11223 19.152 8.11274 19.1397C8.11324 19.1275 8.11138 19.1153 8.10728 19.1038C8.10317 19.0924 8.0969 19.082 8.08887 19.0733C8.08083 19.0645 8.07121 19.0577 8.06059 19.0531C7.36694 18.7683 6.69546 18.4251 6.05246 18.0266C6.0411 18.0191 6.03157 18.0088 6.02469 17.9966C6.01781 17.9844 6.01377 17.9706 6.01291 17.9563C6.01205 17.9421 6.0144 17.9278 6.01976 17.9148C6.02512 17.9017 6.03334 17.8902 6.04371 17.8812C6.17934 17.7734 6.31496 17.6609 6.44184 17.5484C6.45303 17.5379 6.46678 17.531 6.4815 17.5285C6.49621 17.526 6.51128 17.528 6.52496 17.5344C10.7337 19.5922 15.2925 19.5922 19.4531 17.5344C19.4664 17.5274 19.4812 17.5246 19.4959 17.5263C19.5106 17.5279 19.5246 17.534 19.5362 17.5437C19.6631 17.6562 19.7987 17.7734 19.9343 17.8812C19.9447 17.8902 19.9529 17.9017 19.9583 17.9148C19.9636 17.9278 19.966 17.9421 19.9651 17.9563C19.9643 17.9706 19.9602 17.9844 19.9534 17.9966C19.9465 18.0088 19.9369 18.0191 19.9256 18.0266C19.2843 18.4271 18.6125 18.769 17.9175 19.0484C17.9068 19.053 17.8972 19.0598 17.8892 19.0686C17.8811 19.0773 17.8749 19.0877 17.8708 19.0991C17.8667 19.1106 17.8648 19.1228 17.8653 19.1351C17.8658 19.1473 17.8687 19.1593 17.8737 19.1703C18.2584 19.9662 18.6971 20.7307 19.1862 21.4578C19.1964 21.4729 19.2107 21.4841 19.2272 21.49C19.2437 21.4959 19.2615 21.4961 19.2781 21.4906C21.5937 20.734 23.7716 19.5594 25.7181 18.0172C25.7281 18.0097 25.7364 17.9999 25.7424 17.9885C25.7485 17.9772 25.7521 17.9646 25.7531 17.9516C26.2868 12.0125 24.8518 6.85156 21.9468 2.27187ZM8.73434 14.825C7.46559 14.825 6.42434 13.5781 6.42434 12.05C6.42434 10.5219 7.44809 9.27031 8.73434 9.27031C10.0337 9.27031 11.0662 10.5266 11.0443 12.0453C11.0443 13.5781 10.0206 14.825 8.73434 14.825ZM17.2831 14.825C16.0143 14.825 14.9731 13.5781 14.9731 12.05C14.9731 10.5219 15.9925 9.27031 17.2831 9.27031C18.5825 9.27031 19.615 10.5266 19.5931 12.0453C19.5931 13.5781 18.5781 14.825 17.2831 14.825Z" fill="#E5E5E5"/>
</svg>
