<svg width="16" height="16" viewBox="0 0 16 16" fill="none" xmlns="http://www.w3.org/2000/svg">
<path d="M13.3333 4.6665H7.33331" stroke="#D4D4D4" stroke-width="1.5" stroke-linecap="round" stroke-linejoin="round"/>
<path d="M9.33331 11.3335H3.33331" stroke="#D4D4D4" stroke-width="1.5" stroke-linecap="round" stroke-linejoin="round"/>
<path d="M11.3333 13.3335C12.4379 13.3335 13.3333 12.4381 13.3333 11.3335C13.3333 10.2289 12.4379 9.3335 11.3333 9.3335C10.2287 9.3335 9.33331 10.2289 9.33331 11.3335C9.33331 12.4381 10.2287 13.3335 11.3333 13.3335Z" stroke="#D4D4D4" stroke-linecap="round" stroke-linejoin="round"/>
<path d="M4.66669 6.6665C5.77126 6.6665 6.66669 5.77107 6.66669 4.6665C6.66669 3.56193 5.77126 2.6665 4.66669 2.6665C3.56212 2.6665 2.66669 3.56193 2.66669 4.6665C2.66669 5.77107 3.56212 6.6665 4.66669 6.6665Z" stroke="#D4D4D4" stroke-linecap="round" stroke-linejoin="round"/>
</svg>
