<svg width="14" height="18" viewBox="0 0 14 18" fill="none" xmlns="http://www.w3.org/2000/svg">
<path d="M0.333313 14.8334V13.1667H1.99998V7.33335C1.99998 6.18058 2.3472 5.15974 3.04165 4.27085C3.73609 3.36808 4.63887 2.7778 5.74998 2.50002V1.91669C5.74998 1.56946 5.86804 1.2778 6.10415 1.04169C6.35415 0.791687 6.65276 0.666687 6.99998 0.666687C7.3472 0.666687 7.63887 0.791687 7.87498 1.04169C8.12498 1.2778 8.24998 1.56946 8.24998 1.91669V2.50002C9.36109 2.7778 10.2639 3.36808 10.9583 4.27085C11.6528 5.15974 12 6.18058 12 7.33335V13.1667H13.6666V14.8334H0.333313ZM6.99998 17.3334C6.54165 17.3334 6.14581 17.1736 5.81248 16.8542C5.49304 16.5209 5.33331 16.125 5.33331 15.6667H8.66665C8.66665 16.125 8.49998 16.5209 8.16665 16.8542C7.8472 17.1736 7.45831 17.3334 6.99998 17.3334ZM3.66665 13.1667H10.3333V7.33335C10.3333 6.41669 10.0069 5.63196 9.35415 4.97919C8.70137 4.32641 7.91665 4.00002 6.99998 4.00002C6.08331 4.00002 5.29859 4.32641 4.64581 4.97919C3.99304 5.63196 3.66665 6.41669 3.66665 7.33335V13.1667Z" fill="#A3A3A3"/>
</svg>
