<svg width="18" height="18" viewBox="0 0 18 18" fill="none" xmlns="http://www.w3.org/2000/svg">
<path d="M9.375 12.75L9 12L8.625 12.75H9.375Z" stroke="#2563EB" stroke-width="1.5" stroke-linecap="round" stroke-linejoin="round"/>
<path d="M11.25 16.5C11.4489 16.5 11.6397 16.421 11.7803 16.2803C11.921 16.1396 12 15.9489 12 15.75V15C12.2825 14.9998 12.5592 14.9198 12.7983 14.7693C13.0374 14.6188 13.2291 14.4038 13.3514 14.1491C13.4736 13.8944 13.5214 13.6103 13.4894 13.3296C13.4573 13.0489 13.3466 12.783 13.17 12.5625C14.0295 11.7317 14.6212 10.6631 14.8693 9.49379C15.1174 8.32446 15.0106 7.10767 14.5626 5.99945C14.1145 4.89124 13.3457 3.94211 12.3546 3.27379C11.3635 2.60547 10.1954 2.24841 9 2.24841C7.80464 2.24841 6.63652 2.60547 5.64544 3.27379C4.65435 3.94211 3.88549 4.89124 3.43743 5.99945C2.98938 7.10767 2.88256 8.32446 3.13067 9.49379C3.37879 10.6631 3.97052 11.7317 4.83 12.5625C4.65343 12.783 4.54273 13.0489 4.51064 13.3296C4.47856 13.6103 4.5264 13.8944 4.64865 14.1491C4.77091 14.4038 4.96261 14.6188 5.20168 14.7693C5.44076 14.9198 5.71748 14.9998 6 15V15.75C6 15.9489 6.07902 16.1396 6.21967 16.2803C6.36032 16.421 6.55109 16.5 6.75 16.5H11.25Z" stroke="#2563EB" stroke-width="1.5" stroke-linecap="round" stroke-linejoin="round"/>
<path d="M11.25 9.75C11.6642 9.75 12 9.41421 12 9C12 8.58579 11.6642 8.25 11.25 8.25C10.8358 8.25 10.5 8.58579 10.5 9C10.5 9.41421 10.8358 9.75 11.25 9.75Z" stroke="#2563EB" stroke-width="1.5" stroke-linecap="round" stroke-linejoin="round"/>
<path d="M6.75 9.75C7.16421 9.75 7.5 9.41421 7.5 9C7.5 8.58579 7.16421 8.25 6.75 8.25C6.33579 8.25 6 8.58579 6 9C6 9.41421 6.33579 9.75 6.75 9.75Z" stroke="#2563EB" stroke-width="1.5" stroke-linecap="round" stroke-linejoin="round"/>
</svg>
